<svg width="1084" height="1434" viewBox="0 0 1084 1434" fill="none" xmlns="http://www.w3.org/2000/svg">
<path d="M2.00006 5.99999C1081.57 6.26211 637 498 2.00043 1081L542 1081L1082 1076C2.00046 1076 447 584 1082 1.00005L2.00006 5.99999Z" fill="white"/>
<path d="M2.00006 5.99999L1082 1.00005L2.00041 1.00008L2.00006 5.99999Z" fill="white"/>
<path d="M1082 1076L542 1081L1082 1081L1082 1076Z" fill="white"/>
<path d="M2.00006 5.99999C1081.57 6.26211 637 498 2.00043 1081M2.00006 5.99999L1082 1.00005M2.00006 5.99999L2.00041 1.00008L1082 1.00005M2.00043 1081L542 1081M2.00043 1081L1082 1081M1082 1076C2.00046 1076 447 584 1082 1.00005M1082 1076L542 1081M1082 1076L1082 1081M542 1081L1082 1081" stroke="white"/>
<path d="M12.3488 1428.19C10.217 1428.19 8.48877 1426.46 8.48877 1424.33V1420.46L77.6149 1310.23L82.4605 1302.5L153.858 1188.64H13.3147C11.1829 1188.64 9.45468 1186.91 9.45468 1184.78V1184.78C9.45468 1182.65 11.1829 1180.92 13.3147 1180.92H159.174C161.306 1180.92 163.034 1182.64 163.034 1184.78V1188.64L91.6367 1302.5L86.791 1310.23L17.6649 1420.46H160.14C162.272 1420.46 164 1422.19 164 1424.33V1424.33C164 1426.46 162.272 1428.19 160.14 1428.19H12.3488Z" fill="white"/>
<path d="M531.68 1186.59C531.68 1184.46 533.411 1182.73 535.543 1182.73V1182.73C537.675 1182.73 539.407 1184.46 539.407 1186.59V1390.88C539.407 1398.13 541.017 1404.36 544.236 1409.6C547.456 1414.75 551.722 1418.73 557.035 1421.55C562.347 1424.29 568.062 1425.65 574.18 1425.65C576.514 1425.65 578.647 1425.45 580.579 1425.05C581.372 1424.89 582.171 1424.7 582.976 1424.48C585.057 1423.91 587.307 1424.95 587.989 1427V1427C588.636 1428.94 587.627 1431.06 585.661 1431.63C584.439 1431.99 583.228 1432.29 582.028 1432.54C579.693 1433.1 577.077 1433.38 574.18 1433.38C566.613 1433.38 559.57 1431.65 553.05 1428.19C546.611 1424.73 541.419 1419.82 537.475 1413.46C533.611 1407.1 531.68 1399.57 531.68 1390.88V1186.59Z" fill="white"/>
<path d="M735.883 1186.59C735.883 1184.46 737.614 1182.73 739.746 1182.73V1182.73C741.878 1182.73 743.61 1184.46 743.61 1186.59V1390.88C743.61 1398.13 745.22 1404.36 748.439 1409.6C751.659 1414.75 755.925 1418.73 761.238 1421.55C766.55 1424.29 772.265 1425.65 778.383 1425.65C780.717 1425.65 782.85 1425.45 784.782 1425.05C785.575 1424.89 786.374 1424.7 787.179 1424.48C789.26 1423.91 791.51 1424.95 792.192 1427V1427C792.839 1428.94 791.83 1431.06 789.864 1431.63C788.642 1431.99 787.431 1432.29 786.231 1432.54C783.896 1433.1 781.28 1433.38 778.383 1433.38C770.816 1433.38 763.773 1431.65 757.253 1428.19C750.814 1424.73 745.622 1419.82 741.678 1413.46C737.814 1407.1 735.883 1399.57 735.883 1390.88V1186.59Z" fill="white"/>
<path d="M898.888 1427.44C898.339 1428.98 896.88 1430 895.249 1430V1430C892.579 1430 890.707 1427.36 891.606 1424.84L977.227 1185.29C977.776 1183.75 979.231 1182.73 980.862 1182.73H986.048C987.679 1182.73 989.134 1183.75 989.683 1185.29L1075.3 1424.84C1076.2 1427.36 1074.33 1430 1071.66 1430V1430C1070.03 1430 1068.57 1428.98 1068.02 1427.44L983.938 1192.39H982.972L898.888 1427.44Z" fill="white"/>
<path d="M77.6149 1310.23L82.4605 1302.5H13.31C11.1782 1302.5 9.45 1304.23 9.45 1306.36V1306.36C9.45 1308.5 11.1782 1310.23 13.31 1310.23H77.6149Z" fill="white"/>
<path d="M91.6367 1302.5L86.791 1310.23H271.33V1302.5H91.6367Z" fill="white"/>
<path d="M624.75 1302.5C626.882 1302.5 628.61 1304.23 628.61 1306.36V1306.36C628.61 1308.5 626.882 1310.23 624.75 1310.23L450.24 1310.23C448.108 1310.23 446.38 1308.5 446.38 1306.36V1306.36C446.38 1304.23 448.108 1302.5 450.24 1302.5L624.75 1302.5Z" fill="white"/>
<path d="M403.176 1186.59C403.176 1184.46 401.448 1182.73 399.316 1182.73H275.19C273.058 1182.73 271.33 1184.46 271.33 1186.59V1302.5V1310.23V1426.14C271.33 1428.27 273.058 1430 275.19 1430H402.697C404.829 1430 406.557 1428.27 406.557 1426.14V1426.14C406.557 1424 404.829 1422.27 402.697 1422.27H279.057V1310.23L422.52 1310.23C424.652 1310.23 426.38 1308.5 426.38 1306.36V1306.36C426.38 1304.23 424.652 1302.5 422.52 1302.5L279.057 1302.5V1190.45H399.316C401.448 1190.45 403.176 1188.72 403.176 1186.59V1186.59Z" fill="white"/>
<path d="M851.44 1302.5C853.572 1302.5 855.3 1304.23 855.3 1306.36V1306.36C855.3 1308.5 853.572 1310.23 851.44 1310.23L652.47 1310.23C650.338 1310.23 648.61 1308.5 648.61 1306.36V1306.36C648.61 1304.23 650.338 1302.5 652.47 1302.5L851.44 1302.5Z" fill="white"/>
<path d="M1073.29 1302.5C1075.42 1302.5 1077.15 1304.23 1077.15 1306.36V1306.36C1077.15 1308.5 1075.42 1310.23 1073.29 1310.23L879.16 1310.23C877.028 1310.23 875.3 1308.5 875.3 1306.36V1306.36C875.3 1304.23 877.028 1302.5 879.16 1302.5L1073.29 1302.5Z" fill="white"/>
</svg>
