<svg width="1380" height="1780" viewBox="0 0 1380 1780" fill="none" xmlns="http://www.w3.org/2000/svg">
<g clip-path="url(#clip0_206_2)">
<g clip-path="url(#clip1_206_2)" filter="url(#filter0_ddd_206_2)">
<path d="M149.982 206.022C1229.56 206.243 785.001 697.998 150.024 1281.02L690.024 1281L1230.02 1275.98C150.024 1276.02 595.005 784.005 1229.98 200.981L149.982 206.022Z" fill="white"/>
<path d="M149.982 206.022L1229.98 200.981L149.983 201.022L149.982 206.022Z" fill="white"/>
<path d="M1230.02 1275.98L690.024 1281L1230.02 1280.98L1230.02 1275.98Z" fill="white"/>
<path d="M149.982 206.022C1229.56 206.243 785.001 697.998 150.024 1281.02M149.982 206.022L1229.98 200.981M149.982 206.022L149.983 201.022L1229.98 200.981M150.024 1281.02L690.024 1281M150.024 1281.02L1230.02 1280.98M1230.02 1275.98C150.024 1276.02 595.005 784.005 1229.98 200.981M1230.02 1275.98L690.024 1281M1230.02 1275.98L1230.02 1280.98M690.024 1281L1230.02 1280.98" stroke="white"/>
<path d="M679.681 1386.59C679.681 1384.46 681.413 1382.73 683.545 1382.73C685.676 1382.73 687.408 1384.46 687.408 1386.59V1590.88C687.408 1598.13 689.018 1604.37 692.238 1609.6C695.457 1614.75 699.723 1618.73 705.036 1621.55C710.348 1624.29 716.063 1625.66 722.181 1625.66C724.515 1625.66 726.648 1625.46 728.58 1625.05C729.373 1624.89 730.172 1624.71 730.977 1624.48C733.058 1623.91 735.308 1624.95 735.99 1627C736.638 1628.94 735.628 1631.06 733.662 1631.63C732.44 1631.99 731.229 1632.29 730.029 1632.54C727.695 1633.1 725.079 1633.38 722.181 1633.38C714.615 1633.38 707.571 1631.65 701.052 1628.19C694.612 1624.73 689.42 1619.82 685.476 1613.46C681.613 1607.1 679.681 1599.58 679.681 1590.88V1386.59Z" fill="white"/>
<path d="M883.884 1386.59C883.884 1384.46 885.616 1382.73 887.747 1382.73C889.879 1382.73 891.611 1384.46 891.611 1386.59V1590.88C891.611 1598.13 893.221 1604.37 896.441 1609.6C899.66 1614.75 903.927 1618.73 909.239 1621.55C914.552 1624.29 920.266 1625.66 926.384 1625.66C928.718 1625.66 930.851 1625.46 932.783 1625.05C933.576 1624.89 934.375 1624.71 935.18 1624.48C937.262 1623.91 939.511 1624.95 940.193 1627C940.841 1628.94 939.831 1631.06 937.865 1631.63C936.643 1631.99 935.432 1632.29 934.232 1632.54C931.898 1633.1 929.282 1633.38 926.384 1633.38C918.818 1633.38 911.775 1631.65 905.255 1628.19C898.815 1624.73 893.623 1619.82 889.679 1613.46C885.816 1607.1 883.884 1599.58 883.884 1590.88V1386.59Z" fill="white"/>
<path d="M1046.89 1627.44C1046.34 1628.98 1044.88 1630 1043.25 1630C1040.58 1630 1038.71 1627.36 1039.61 1624.84L1125.23 1385.29C1125.78 1383.76 1127.23 1382.73 1128.86 1382.73H1134.05C1135.68 1382.73 1137.14 1383.76 1137.68 1385.29L1223.31 1624.84C1224.2 1627.36 1222.33 1630 1219.66 1630C1218.03 1630 1216.57 1628.98 1216.02 1627.44L1131.94 1392.39H1130.97L1046.89 1627.44Z" fill="white"/>
<path d="M772.751 1502.5C774.883 1502.5 776.611 1504.24 776.611 1506.37C776.611 1508.5 774.883 1510.23 772.751 1510.23L598.241 1510.23C596.109 1510.23 594.381 1508.5 594.381 1506.37C594.381 1504.24 596.109 1502.5 598.241 1502.5L772.751 1502.5Z" fill="white"/>
<path d="M999.441 1502.5C1001.57 1502.5 1003.3 1504.24 1003.3 1506.37C1003.3 1508.5 1001.57 1510.23 999.441 1510.23L800.471 1510.23C798.339 1510.23 796.611 1508.5 796.611 1506.37C796.611 1504.24 798.339 1502.5 800.471 1502.5L999.441 1502.5Z" fill="white"/>
<path d="M1221.29 1502.5C1223.42 1502.5 1225.15 1504.24 1225.15 1506.37C1225.15 1508.5 1223.42 1510.23 1221.29 1510.23L1027.16 1510.23C1025.03 1510.23 1023.3 1508.5 1023.3 1506.37C1023.3 1504.24 1025.03 1502.5 1027.16 1502.5L1221.29 1502.5Z" fill="white"/>
<path d="M239.638 1502.5L234.792 1510.23H419.331V1502.5H239.638Z" fill="white"/>
<path d="M161.311 1502.5C159.179 1502.5 157.451 1504.24 157.451 1506.37C157.451 1508.5 159.179 1510.23 161.311 1510.23H225.616L230.462 1502.5H161.311Z" fill="white"/>
<path d="M234.792 1510.23L239.638 1502.5H230.462L225.616 1510.23H234.792Z" fill="white"/>
<path fill-rule="evenodd" clip-rule="evenodd" d="M160.35 1628.19C158.218 1628.19 156.49 1626.46 156.49 1624.33V1620.47L225.616 1510.23H234.792L165.666 1620.47H308.141C310.273 1620.47 312.001 1622.2 312.001 1624.33C312.001 1626.46 310.273 1628.19 308.141 1628.19H160.35Z" fill="white"/>
<path d="M157.456 1384.78C157.456 1386.92 159.184 1388.65 161.316 1388.65H301.859L230.462 1502.5H239.638L311.035 1388.65V1384.78C311.035 1382.65 309.307 1380.92 307.175 1380.92H161.316C159.184 1380.92 157.456 1382.65 157.456 1384.78Z" fill="white"/>
<path d="M551.178 1386.59C551.178 1384.46 549.449 1382.73 547.318 1382.73H423.191C421.059 1382.73 419.331 1384.46 419.331 1386.59V1502.5H427.058V1390.46H547.318C549.449 1390.46 551.178 1388.73 551.178 1386.59Z" fill="white"/>
<path d="M419.331 1502.5V1510.23H427.058V1502.5H419.331Z" fill="white"/>
<path d="M554.558 1626.14C554.558 1624.01 552.83 1622.28 550.698 1622.28H427.058V1510.23H419.331V1626.14C419.331 1628.28 421.059 1630 423.191 1630H550.698C552.83 1630 554.558 1628.27 554.558 1626.14Z" fill="white"/>
<path d="M570.521 1510.23C572.653 1510.23 574.381 1508.5 574.381 1506.37C574.381 1504.24 572.653 1502.5 570.521 1502.5H427.058V1510.23H570.521Z" fill="white"/>
</g>
</g>
<defs>
<filter id="filter0_ddd_206_2" x="-895.4" y="-895.4" width="3170.8" height="3570.8" filterUnits="userSpaceOnUse" color-interpolation-filters="sRGB">
<feFlood flood-opacity="0" result="BackgroundImageFix"/>
<feColorMatrix in="SourceAlpha" type="matrix" values="0 0 0 0 0 0 0 0 0 0 0 0 0 0 0 0 0 0 127 0" result="hardAlpha"/>
<feOffset/>
<feGaussianBlur stdDeviation="71.1"/>
<feColorMatrix type="matrix" values="0 0 0 0 0.117647 0 0 0 0 0.843137 0 0 0 0 0.376471 0 0 0 0.4 0"/>
<feBlend mode="normal" in2="BackgroundImageFix" result="effect1_dropShadow_206_2"/>
<feColorMatrix in="SourceAlpha" type="matrix" values="0 0 0 0 0 0 0 0 0 0 0 0 0 0 0 0 0 0 127 0" result="hardAlpha"/>
<feOffset/>
<feGaussianBlur stdDeviation="142.2"/>
<feColorMatrix type="matrix" values="0 0 0 0 0.117647 0 0 0 0 0.843137 0 0 0 0 0.376471 0 0 0 0.4 0"/>
<feBlend mode="normal" in2="effect1_dropShadow_206_2" result="effect2_dropShadow_206_2"/>
<feColorMatrix in="SourceAlpha" type="matrix" values="0 0 0 0 0 0 0 0 0 0 0 0 0 0 0 0 0 0 127 0" result="hardAlpha"/>
<feOffset/>
<feGaussianBlur stdDeviation="497.7"/>
<feColorMatrix type="matrix" values="0 0 0 0 0.117647 0 0 0 0 0.843137 0 0 0 0 0.376471 0 0 0 0.4 0"/>
<feBlend mode="normal" in2="effect2_dropShadow_206_2" result="effect3_dropShadow_206_2"/>
<feBlend mode="normal" in="SourceGraphic" in2="effect3_dropShadow_206_2" result="shape"/>
</filter>
<clipPath id="clip0_206_2">
<rect width="1380" height="1780" fill="white"/>
</clipPath>
<clipPath id="clip1_206_2">
<rect width="1180" height="1580" fill="white" transform="translate(100 100)"/>
</clipPath>
</defs>
</svg>
