<svg width="1084" height="1082" viewBox="0 0 1084 1082" fill="none" xmlns="http://www.w3.org/2000/svg">
<path d="M2.00347 6.00216C1081.58 6.26428 637.004 498.002 2.00385 1081L542.004 1081L1082 1076C2.00388 1076 447.004 584.002 1082 1.00221L2.00347 6.00216Z" fill="#1ED760"/>
<path d="M2.00347 6.00216L1082 1.00221L2.00383 1.00225L2.00347 6.00216Z" fill="#1ED760"/>
<path d="M1082 1076L542.004 1081L1082 1081L1082 1076Z" fill="#1ED760"/>
<path d="M2.00347 6.00216C1081.58 6.26428 637.004 498.002 2.00385 1081M2.00347 6.00216L1082 1.00221M2.00347 6.00216L2.00383 1.00225L1082 1.00221M2.00385 1081L542.004 1081M2.00385 1081L1082 1081M1082 1076C2.00388 1076 447.004 584.002 1082 1.00221M1082 1076L542.004 1081M1082 1076L1082 1081M542.004 1081L1082 1081" stroke="white"/>
</svg>
